<svg width="110" height="78" viewBox="0 0 110 78" fill="none" xmlns="http://www.w3.org/2000/svg">
<g id="&#208;&#154;&#208;&#176;&#209;&#128;&#209;&#130;&#208;&#184;&#208;&#189;&#208;&#186;&#208;&#184; &#208;&#180;&#208;&#187;&#209;&#143; &#209;&#141;&#208;&#186;&#209;&#129;&#208;&#191;&#208;&#181;&#209;&#128;&#209;&#130;&#208;&#189;&#208;&#190;&#209;&#129;&#209;&#130;&#208;&#184;" filter="url(#filter0_d_6_170)">
<g id="&#208;&#148;&#208;&#149;&#208;&#155;&#208;&#158;&#208;&#146;&#208;&#171;&#208;&#149; &#208;&#158;&#208;&#162;&#208;&#157;&#208;&#158;&#208;&#168;&#208;&#149;&#208;&#157;&#208;&#152;&#208;&#175;">
<path id="Vector" d="M42.3984 63.1169L45.7629 66.2711C46.604 66.9019 47.6554 66.9019 48.4966 66.2711L49.7583 64.7991C51.4405 63.1169 51.2302 60.3832 49.548 58.9112C47.4452 56.8084 45.3423 57.6495 44.0806 58.701C44.9218 57.8598 45.5526 56.8084 45.9732 56.5981C46.8143 55.757 47.2349 54.7056 47.2349 53.6542C47.2349 52.6028 46.8143 51.3411 45.9732 50.5C44.2909 48.8177 41.5573 49.028 40.0853 50.7102L38.8236 52.1822C39.6647 51.3411 40.2956 50.5 40.9264 49.8691C42.6087 48.1869 42.3984 45.4532 40.7161 43.9812C39.0339 42.299 36.3002 42.5092 34.8282 44.1915L32.9357 46.084C34.618 44.4018 34.4077 41.6681 32.7254 40.1961C31.0432 38.5139 28.3095 38.7242 26.8375 40.4064L23.8936 43.5606C22.6319 44.8223 22.8422 46.7149 24.1039 47.9766L25.5758 49.4485C26.8375 50.7102 28.9403 50.5 29.9917 49.2383L30.202 49.028C28.9403 50.2897 29.1506 52.3925 30.4123 53.6542L31.674 54.7056C33.5665 56.3878 35.2488 55.757 36.7208 54.285C35.6694 55.5467 35.8796 57.6495 37.1413 58.701L38.1927 59.7524C39.875 61.4346 41.5573 60.8038 43.0292 59.5421C42.6087 59.9626 42.3984 60.1729 42.3984 60.1729C41.5573 61.2243 41.5573 62.486 42.3984 63.1169Z" fill="black"/>
<path id="Vector_2" d="M76.464 49.0278C77.936 47.5558 77.936 45.2427 76.8845 43.7708C76.2537 42.9296 61.534 29.051 57.7489 27.9996L49.3376 29.8921C48.7068 30.1024 47.8656 30.1024 47.0245 30.1024C42.6086 30.1024 38.6132 27.1585 37.5618 22.7426C37.1412 20.85 37.1412 18.7472 37.9824 17.0649L25.786 35.78C27.0477 35.1492 28.3094 34.9389 29.5711 34.9389C33.7767 34.9389 36.0898 37.8829 36.7207 38.5137V38.724C39.2441 38.5137 41.1366 39.1445 42.8189 40.4062H43.0291C43.2394 40.6165 45.5525 42.2988 45.9731 45.6633C49.9684 47.1353 52.0713 51.1306 51.4404 54.7054C56.0666 57.8596 56.4872 63.7475 53.1227 67.5326C53.9638 68.3738 54.1741 68.3738 54.5946 68.584C56.2769 69.4252 58.1694 69.0046 59.4311 67.5326C60.9031 66.0607 60.9031 63.7475 59.8517 62.0653C61.534 63.1167 63.8471 62.9064 65.1087 61.4344C66.5807 59.7522 66.5807 57.2288 64.8985 55.5465C66.5807 57.0185 69.1041 57.0185 70.7864 55.3363C71.6275 54.4951 71.8378 53.4437 71.8378 52.3923C71.8378 51.3409 71.4172 50.0792 70.5761 49.4484C72.2583 50.9203 74.7817 50.7101 76.464 49.0278Z" fill="black"/>
<path id="Vector_3" d="M7.91209 36.4107L11.2766 38.5136C12.328 39.1444 13.3794 39.565 14.6411 39.565C16.7439 39.565 18.8468 38.5136 19.8982 36.621L34.4076 14.3311C35.2487 12.8591 35.6693 11.1769 35.2487 9.49464C34.8282 7.81238 33.9871 6.3404 32.5151 5.49928L29.1506 3.18618C28.0992 2.55533 26.8375 2.13477 25.7861 2.13477C23.6832 2.13477 21.5804 3.18617 20.529 5.07871L6.01955 27.5789C4.96814 29.0509 4.75786 30.7331 5.17842 32.4154C5.3887 34.0976 6.44011 35.3593 7.91209 36.4107Z" fill="black"/>
<path id="Vector_4" d="M100.016 33.4669L103.59 31.5744C105.693 30.523 106.534 27.9996 105.483 25.8968L93.2866 2.34518C92.2351 0.242363 89.7118 -0.598765 87.6089 0.452646L84.0341 2.34518C81.9313 3.39659 81.0902 5.91998 82.1416 8.0228L94.338 31.5744C95.3894 33.6772 97.9128 34.5183 100.016 33.4669Z" fill="black"/>
<path id="Vector_5" d="M88.0295 32.6257L89.7118 31.9948L78.7771 10.7563L75.8331 12.2283C72.4686 13.49 68.8938 13.49 65.5293 12.2283C63.6368 11.5975 62.3751 10.5461 60.062 11.3872C52.7021 13.0695 53.7535 12.8592 45.7628 14.7517C42.8189 15.5928 41.1366 18.5368 41.7675 21.4807C42.3983 24.2144 45.3423 26.1069 48.4965 25.4761L57.3283 23.5835C61.3237 22.5321 76.0434 37.0416 79.1977 39.9855L88.0295 32.6257Z" fill="black"/>
</g>
</g>
<defs>
<filter id="filter0_d_6_170" x="0.975342" y="0" width="108.96" height="77.0127" filterUnits="userSpaceOnUse" color-interpolation-filters="sRGB">
<feFlood flood-opacity="0" result="BackgroundImageFix"/>
<feColorMatrix in="SourceAlpha" type="matrix" values="0 0 0 0 0 0 0 0 0 0 0 0 0 0 0 0 0 0 127 0" result="hardAlpha"/>
<feOffset dy="4"/>
<feGaussianBlur stdDeviation="2"/>
<feComposite in2="hardAlpha" operator="out"/>
<feColorMatrix type="matrix" values="0 0 0 0 0 0 0 0 0 0 0 0 0 0 0 0 0 0 0.25 0"/>
<feBlend mode="normal" in2="BackgroundImageFix" result="effect1_dropShadow_6_170"/>
<feBlend mode="normal" in="SourceGraphic" in2="effect1_dropShadow_6_170" result="shape"/>
</filter>
</defs>
</svg>
