<svg width="89" height="78" viewBox="0 0 89 78" fill="none" xmlns="http://www.w3.org/2000/svg">
<g id="&#208;&#145;&#208;&#149;&#208;&#151;&#208;&#158;&#208;&#159;&#208;&#144;&#208;&#161;&#208;&#157;&#208;&#158;&#208;&#161;&#208;&#162;&#208;&#172;" filter="url(#filter0_d_6_158)">
<g id="Group">
<g id="Group_2">
<path id="Vector" d="M68.1759 38.7153H62.2918V44.0877H56.9194V49.9718H62.2918V55.3442H68.1759V49.9718H73.5483V44.0877H68.1759V38.7153Z" fill="black"/>
<path id="Vector_2" d="M80.5409 34.5368C82.5876 30.9552 83.6961 26.9472 83.6961 22.9393C83.6961 17.0552 81.479 11.1712 76.9593 6.65153C72.6102 2.38773 66.8968 0 60.6716 0C54.4464 0 48.8182 2.38773 44.4691 6.73681L43.7869 7.41902L43.1047 6.73681C38.7556 2.38773 32.9569 0 26.817 0C20.4213 0 14.5372 2.55828 10.1882 7.07791C1.66055 16.0319 2.00165 30.5288 10.8704 39.4828L39.0115 67.5387C40.2906 68.8178 42.0814 69.5 43.7869 69.5C45.4925 69.5 47.2833 68.8178 48.5624 67.5387L53.3379 62.7632C56.6636 65.2362 60.7569 66.7712 65.1912 66.7712C76.1066 66.7712 84.9753 57.9025 84.9753 46.9871C84.9753 42.2969 83.2698 37.9479 80.5409 34.5368ZM43.7869 62.4221L15.8164 34.4515C9.59122 28.2264 9.3354 18.1638 15.2194 11.9387C18.2041 8.78344 22.2974 6.99264 26.7317 6.99264C30.9955 6.99264 35.0035 8.61288 37.9882 11.5975L43.7017 17.311L49.4152 11.5975C52.3998 8.61288 56.4078 6.99264 60.6716 6.99264C62.8035 6.99264 64.8501 7.41902 66.8115 8.1865C68.6875 8.95399 70.4783 10.1479 71.928 11.5975C76.8741 16.5436 77.8121 23.8773 74.998 29.7613C72.0986 28.1411 68.7728 27.1178 65.1912 27.1178C54.2759 27.1178 45.4072 35.9865 45.4072 46.9018C45.4072 50.8245 46.5158 54.4061 48.4771 57.4761L43.7869 62.4221ZM65.1912 59.9491C58.1133 59.9491 52.3145 54.1503 52.3145 47.0724C52.3145 39.9945 58.1133 34.1957 65.1912 34.1957C72.2691 34.1957 78.1532 39.9092 78.1532 46.9871C78.1532 54.1503 72.3544 59.9491 65.1912 59.9491Z" fill="black"/>
</g>
</g>
</g>
<defs>
<filter id="filter0_d_6_158" x="0" y="0" width="88.9753" height="77.5" filterUnits="userSpaceOnUse" color-interpolation-filters="sRGB">
<feFlood flood-opacity="0" result="BackgroundImageFix"/>
<feColorMatrix in="SourceAlpha" type="matrix" values="0 0 0 0 0 0 0 0 0 0 0 0 0 0 0 0 0 0 127 0" result="hardAlpha"/>
<feOffset dy="4"/>
<feGaussianBlur stdDeviation="2"/>
<feComposite in2="hardAlpha" operator="out"/>
<feColorMatrix type="matrix" values="0 0 0 0 0 0 0 0 0 0 0 0 0 0 0 0 0 0 0.25 0"/>
<feBlend mode="normal" in2="BackgroundImageFix" result="effect1_dropShadow_6_158"/>
<feBlend mode="normal" in="SourceGraphic" in2="effect1_dropShadow_6_158" result="shape"/>
</filter>
</defs>
</svg>
