<svg width="89" height="88" viewBox="0 0 89 88" fill="none" xmlns="http://www.w3.org/2000/svg">
<g id="&#208;&#154;&#208;&#144;&#208;&#167;&#208;&#149;&#208;&#161;&#208;&#162;&#208;&#146;&#208;&#158;" filter="url(#filter0_d_6_166)">
<path d="M44.9753 9C27.8813 9 13.9753 22.907 13.9753 40C13.9753 57.093 27.8813 71 44.9753 71C62.0693 71 75.9753 57.093 75.9753 40C75.9753 22.907 62.0693 9 44.9753 9ZM44.9753 67C30.0873 67 17.9753 54.888 17.9753 40C17.9753 25.112 30.0873 13 44.9753 13C59.8633 13 71.9753 25.112 71.9753 40C71.9753 54.888 59.8633 67 44.9753 67ZM44.9753 0C22.9193 0 4.97534 17.944 4.97534 40C4.97534 62.056 22.9193 80 44.9753 80C67.0313 80 84.9753 62.056 84.9753 40C84.9753 17.944 67.0313 0 44.9753 0ZM44.9753 76C25.1243 76 8.97534 59.851 8.97534 40C8.97534 20.149 25.1243 4 44.9753 4C64.8263 4 80.9753 20.149 80.9753 40C80.9753 59.851 64.8263 76 44.9753 76ZM59.2183 30.415C58.0843 29.281 56.5773 28.657 54.9753 28.657C53.3733 28.657 51.8663 29.281 50.7333 30.415L42.9753 38.172L39.2183 34.415C38.0843 33.281 36.5773 32.657 34.9753 32.657C33.3733 32.657 31.8663 33.282 30.7353 34.413L30.3883 34.758C28.0503 37.097 28.0503 40.904 30.3893 43.243L37.3193 50.171C38.8303 51.682 40.8393 52.514 42.9753 52.514C45.1113 52.514 47.1213 51.682 48.6313 50.171L59.5623 39.242C61.9003 36.903 61.9003 33.096 59.5593 30.755L59.2183 30.415ZM56.7333 36.415L45.8033 47.344C44.2913 48.855 41.6583 48.855 40.1473 47.344L33.2183 40.416C32.4383 39.636 32.4383 38.366 33.2153 37.588L33.5623 37.243C33.9393 36.866 34.4413 36.658 34.9753 36.658C35.5093 36.658 36.0113 36.866 36.3893 37.244L41.5613 42.415C42.3423 43.196 43.6083 43.196 44.3893 42.415L53.5613 33.244H53.5623C54.3163 32.489 55.6313 32.487 56.3913 33.246L56.7323 33.586C57.5123 34.365 57.5123 35.635 56.7333 36.415Z" fill="black"/>
</g>
<defs>
<filter id="filter0_d_6_166" x="0.975342" y="0" width="88" height="88" filterUnits="userSpaceOnUse" color-interpolation-filters="sRGB">
<feFlood flood-opacity="0" result="BackgroundImageFix"/>
<feColorMatrix in="SourceAlpha" type="matrix" values="0 0 0 0 0 0 0 0 0 0 0 0 0 0 0 0 0 0 127 0" result="hardAlpha"/>
<feOffset dy="4"/>
<feGaussianBlur stdDeviation="2"/>
<feComposite in2="hardAlpha" operator="out"/>
<feColorMatrix type="matrix" values="0 0 0 0 0 0 0 0 0 0 0 0 0 0 0 0 0 0 0.25 0"/>
<feBlend mode="normal" in2="BackgroundImageFix" result="effect1_dropShadow_6_166"/>
<feBlend mode="normal" in="SourceGraphic" in2="effect1_dropShadow_6_166" result="shape"/>
</filter>
</defs>
</svg>
